<?xml version="1.0" standalone="no"?>
<!DOCTYPE svg PUBLIC "-//W3C//DTD SVG 20010904//EN"
 "http://www.w3.org/TR/2001/REC-SVG-20010904/DTD/svg10.dtd">
<svg version="1.0" xmlns="http://www.w3.org/2000/svg"
 width="300.000000pt" height="300.000000pt" viewBox="0 0 300.000000 300.000000"
 preserveAspectRatio="xMidYMid meet">
<metadata>
Created by potrace 1.11, written by Peter Selinger 2001-2013
</metadata>
<g transform="translate(0.000000,300.000000) scale(0.100000,-0.100000)"
fill="#000000" stroke="none">
<path d="M1403 2445 c-104 -31 -171 -116 -159 -203 8 -61 48 -109 120 -146 48
-25 68 -29 134 -30 42 0 94 6 114 13 61 20 118 68 140 117 72 163 -137 311
-349 249z"/>
<path d="M2119 2361 c-50 -10 -124 -55 -152 -94 -98 -131 -14 -302 165 -335
164 -31 317 73 318 216 0 81 -51 154 -138 193 -48 22 -137 31 -193 20z"/>
<path d="M790 2320 c-194 -25 -283 -200 -158 -311 114 -100 347 -87 432 24 53
70 47 147 -18 212 -61 60 -155 88 -256 75z"/>
<path d="M1588 1984 c-2 -1 -65 -4 -141 -6 -129 -3 -137 -4 -137 -23 -2 -68 5
-636 14 -1175 l2 -135 180 0 179 1 0 504 c0 278 -2 579 -5 670 l-5 164 -42 2
c-23 1 -44 0 -45 -2z"/>
<path d="M2023 1852 l-163 -2 -1 -28 c0 -15 -2 -83 -4 -152 -10 -317 -16 -508
-29 -977 -2 -79 -9 -71 69 -88 11 -2 46 -11 78 -19 32 -9 61 -16 66 -16 4 0
15 35 25 78 10 42 45 185 77 317 33 132 61 249 64 260 8 40 144 593 150 615 5
17 -17 18 -332 12z"/>
<path d="M675 1808 c3 -13 21 -87 40 -165 19 -78 36 -152 39 -165 5 -24 64
-267 141 -583 25 -104 53 -219 62 -255 8 -36 18 -68 22 -72 4 -4 45 4 91 18
47 14 96 29 110 33 24 8 25 11 24 82 0 65 -10 225 -19 329 -2 19 -6 78 -9 130
-11 155 -17 242 -21 290 -2 25 -7 97 -11 160 -4 63 -8 126 -9 140 -2 14 -3 37
-4 53 l-1 27 -230 0 -230 0 5 -22z"/>
<path d="M2360 1786 c0 -6 -3 -21 -6 -32 -5 -19 2 -23 63 -40 93 -25 167 -56
199 -83 23 -20 24 -24 11 -44 -23 -35 -146 -79 -313 -112 -14 -3 -23 -15 -27
-32 -3 -16 -9 -36 -12 -45 -5 -14 -2 -16 17 -13 12 2 43 6 68 9 38 5 254 42
352 61 15 3 39 10 53 15 14 5 25 8 25 5 0 -8 142 45 176 65 19 12 34 30 34 40
0 55 -166 120 -470 184 -162 34 -170 35 -170 22z"/>
<path d="M589 1776 c-2 -2 -26 -7 -53 -10 -57 -8 -163 -30 -266 -55 -25 -7
-52 -13 -60 -15 -48 -12 -138 -49 -167 -68 -38 -26 -51 -61 -32 -84 25 -30
153 -80 254 -99 99 -19 197 -35 244 -40 30 -4 61 -8 70 -10 9 -1 47 -6 85 -10
l69 -7 -7 24 c-4 12 -10 33 -13 44 -4 17 -15 23 -53 28 -119 16 -272 69 -283
98 -13 37 58 84 192 125 47 14 87 27 89 28 2 2 0 14 -4 29 -5 20 -12 26 -33
26 -15 0 -30 -2 -32 -4z"/>
</g>
</svg>
